<?xml version="1.0" standalone="no"?>
<!DOCTYPE svg PUBLIC "-//W3C//DTD SVG 20010904//EN"
 "http://www.w3.org/TR/2001/REC-SVG-20010904/DTD/svg10.dtd">
<svg version="1.0" xmlns="http://www.w3.org/2000/svg"
 width="1920.000000pt" height="1080.000000pt" viewBox="0 0 1920.000000 1080.000000"
 preserveAspectRatio="xMidYMid meet">

<g transform="translate(0.000000,1080.000000) scale(0.100000,-0.100000)"
fill="#000000" stroke="none">
<path d="M16865 5485 c-114 -21 -144 -36 -282 -144 -213 -166 -232 -197 -173
-277 l29 -41 -29 -28 c-36 -34 -39 -69 -10 -125 23 -44 54 -70 87 -70 22 0 23
-4 23 -67 1 -207 118 -398 300 -486 223 -109 499 -43 642 152 30 41 48 58 58
54 8 -4 53 -16 100 -28 47 -12 99 -29 115 -37 47 -24 120 -30 250 -18 144 13
192 24 225 55 59 54 189 94 335 103 101 7 107 8 122 34 16 25 15 28 -11 62
-32 42 -145 125 -229 167 -32 17 -99 43 -148 59 -167 55 -261 115 -509 325
-284 240 -352 269 -527 228 l-72 -16 -46 42 c-78 72 -117 81 -250 56z m141
-56 c16 -5 49 -30 76 -55 54 -50 65 -52 183 -27 47 9 95 13 115 10 56 -11 153
-74 287 -187 282 -237 440 -342 558 -371 105 -24 355 -164 355 -198 0 -13 -26
-21 -68 -21 -20 -1 -73 -8 -117 -16 -44 -9 -147 -19 -230 -23 l-150 -7 39 -18
c22 -10 55 -20 73 -23 67 -11 30 -40 -68 -53 -131 -17 -274 -13 -323 10 -23
10 -75 26 -115 35 -55 13 -80 24 -105 49 -24 25 -47 36 -94 45 -53 10 -65 16
-73 38 -10 27 -2 104 23 216 16 73 3 101 -64 135 -67 34 -121 38 -193 12 -33
-11 -85 -23 -115 -27 -50 -5 -59 -3 -86 20 -17 14 -39 44 -48 66 -10 22 -25
42 -34 46 -33 12 -143 -60 -269 -177 -28 -26 -58 -48 -67 -48 -16 0 -56 46
-56 65 0 7 16 29 35 48 19 19 35 42 35 50 0 8 -16 34 -35 57 -19 23 -35 45
-35 49 0 14 98 101 208 184 115 88 152 103 287 120 17 2 33 5 37 6 4 0 19 -4
34 -10z m-182 -446 c49 -96 140 -117 294 -68 88 28 129 25 181 -14 23 -17 23
-17 6 -82 -9 -35 -18 -101 -19 -146 -1 -98 17 -132 80 -147 21 -5 41 -11 43
-13 9 -7 -73 -99 -119 -134 -150 -112 -357 -113 -505 -1 -104 79 -164 191
-173 323 -6 104 17 183 65 224 46 39 114 85 124 85 5 0 15 -12 23 -27z"/>
<path d="M16652 4808 c-7 -7 -12 -31 -12 -54 0 -101 132 -129 175 -38 9 19 13
39 9 45 -10 17 -106 59 -134 59 -15 0 -31 -5 -38 -12z"/>
<path d="M17063 4732 c-18 -11 -32 -55 -26 -84 14 -71 112 -99 159 -45 13 16
24 41 24 57 0 25 -6 31 -52 48 -80 29 -92 32 -105 24z"/>
<path d="M11627 5420 c-62 -16 -112 -47 -156 -96 -99 -113 -94 -273 13 -379
65 -65 130 -90 236 -89 82 0 132 13 198 51 l42 24 0 129 0 130 -135 0 -135 0
0 -60 0 -60 50 0 c48 0 50 -1 50 -29 0 -34 -14 -41 -77 -41 -39 0 -50 5 -84
39 -35 35 -39 44 -39 90 0 29 7 65 15 81 31 60 114 77 192 39 l42 -20 32 36
c73 82 73 82 47 99 -80 53 -207 77 -291 56z"/>
<path d="M12727 5420 c-214 -54 -297 -307 -152 -468 62 -69 126 -96 230 -96
128 0 218 54 277 167 31 60 31 174 0 239 -28 56 -88 113 -148 139 -51 23 -153
32 -207 19z m159 -194 c30 -30 34 -40 34 -86 0 -46 -4 -56 -34 -86 -29 -29
-41 -34 -81 -34 -40 0 -52 5 -81 34 -30 30 -34 40 -34 86 0 46 4 56 34 86 29
29 41 34 81 34 40 0 52 -5 81 -34z"/>
<path d="M14207 5420 c-214 -54 -297 -307 -152 -468 62 -69 126 -96 230 -96
128 0 218 54 277 167 31 60 31 174 0 239 -28 56 -88 113 -148 139 -51 23 -153
32 -207 19z m159 -194 c30 -30 34 -40 34 -86 0 -46 -4 -56 -34 -86 -29 -29
-41 -34 -81 -34 -40 0 -52 5 -81 34 -30 30 -34 40 -34 86 0 46 4 56 34 86 29
29 41 34 81 34 40 0 52 -5 81 -34z"/>
<path d="M15387 5416 c-91 -25 -138 -77 -145 -160 -8 -102 39 -144 213 -188
76 -19 90 -26 90 -43 0 -18 -6 -20 -71 -19 -57 0 -79 5 -119 28 l-50 27 -38
-43 c-61 -70 -62 -75 -25 -98 73 -45 140 -63 238 -64 83 -1 102 2 151 25 112
53 143 184 61 261 -34 33 -85 54 -165 69 -80 15 -113 34 -96 56 22 26 124 9
200 -34 6 -4 89 110 89 121 0 13 -100 55 -155 65 -74 14 -117 13 -178 -3z"/>
<path d="M12020 5140 l0 -280 225 0 225 0 0 75 0 75 -130 0 -130 0 0 205 0
205 -95 0 -95 0 0 -280z"/>
<path d="M13160 5141 l0 -281 95 0 95 0 0 80 c0 73 2 80 20 80 14 0 36 -24 72
-80 l53 -80 103 0 c56 0 102 2 102 5 0 3 -27 44 -60 92 -33 47 -60 90 -60 94
0 4 9 11 20 14 29 9 71 68 82 117 20 90 -22 171 -111 212 -40 18 -69 21 -228
24 l-183 4 0 -281z m321 119 c13 -7 19 -21 19 -45 0 -43 -20 -55 -94 -55 l-56
0 0 55 0 55 56 0 c30 0 64 -5 75 -10z"/>
<path d="M13740 5140 l0 -280 90 0 90 0 0 280 0 280 -90 0 -90 0 0 -280z"/>
<path d="M14642 5218 c3 -188 5 -206 25 -245 31 -57 76 -89 153 -109 125 -32
269 5 323 84 38 55 46 108 47 300 l0 172 -95 0 -95 0 0 -175 c0 -173 0 -176
-25 -200 -30 -31 -82 -33 -119 -4 l-26 20 0 180 0 179 -96 0 -95 0 3 -202z"/>
<path d="M11400 3940 l0 -800 190 0 190 0 0 270 0 270 118 0 117 0 123 123
122 122 0 280 0 280 -128 128 -127 127 -303 0 -302 0 0 -800z m440 265 l0
-215 -35 0 -35 0 0 215 0 215 35 0 35 0 0 -215z"/>
<path d="M12438 4615 l-128 -123 0 -559 0 -559 124 -117 124 -117 214 0 213 0
123 123 122 122 0 218 0 217 -205 0 -205 0 -2 -182 -3 -183 -35 0 -35 0 0 480
0 480 33 3 32 3 0 -155 0 -156 210 0 210 0 0 188 0 187 -128 128 -127 127
-205 0 -205 -1 -127 -124z"/>
<path d="M13512 4720 c-55 -13 -108 -55 -132 -105 -31 -64 -26 -156 12 -213
57 -85 198 -114 303 -62 l50 25 3 98 3 97 -96 0 -95 0 0 -45 c0 -45 0 -45 36
-45 31 0 35 -3 32 -22 -2 -19 -10 -24 -42 -26 -31 -3 -44 2 -67 24 -24 23 -29
36 -29 75 0 83 72 124 150 84 28 -15 29 -14 64 27 l36 42 -27 17 c-49 33 -135
45 -201 29z"/>
<path d="M15522 4720 c-55 -13 -108 -55 -132 -105 -31 -64 -26 -156 12 -213
57 -85 198 -114 303 -62 l50 25 3 98 3 97 -96 0 -95 0 0 -45 c0 -45 0 -45 36
-45 31 0 35 -3 32 -22 -2 -19 -10 -24 -42 -26 -31 -3 -44 2 -67 24 -24 23 -29
36 -29 75 0 83 72 124 150 84 28 -15 29 -14 64 27 l36 42 -27 17 c-49 33 -135
45 -201 29z"/>
<path d="M13858 4538 c-43 -101 -80 -191 -84 -200 -5 -16 1 -18 64 -18 70 0
70 0 77 30 l7 30 73 0 c72 0 73 0 84 -30 10 -29 11 -30 80 -30 63 0 70 2 64
18 -4 9 -41 98 -83 197 l-76 180 -65 3 -64 3 -77 -183z m171 -60 c1 -5 -14 -8
-33 -8 l-34 0 17 45 16 46 17 -38 c9 -21 17 -41 17 -45z"/>
<path d="M14250 4520 l0 -200 65 0 64 0 3 98 3 97 43 -64 c23 -36 44 -66 46
-68 2 -2 23 27 47 64 l44 67 3 -97 3 -97 64 0 65 0 0 200 0 200 -68 0 c-66 0
-68 -1 -87 -32 -10 -18 -29 -51 -43 -72 l-24 -39 -45 72 -45 71 -69 0 -69 0 0
-200z"/>
<path d="M14750 4520 l0 -200 65 0 65 0 0 200 0 200 -65 0 -65 0 0 -200z"/>
<path d="M14930 4520 l0 -200 65 0 65 0 0 90 c0 50 3 90 8 90 4 -1 39 -41 77
-90 l70 -90 58 0 57 0 0 200 0 200 -65 0 -64 0 -3 -87 -3 -88 -69 88 -69 87
-64 0 -63 0 0 -200z"/>
<path d="M14367 4206 c-52 -19 -75 -42 -88 -86 -9 -30 -8 -44 5 -72 19 -40 43
-54 136 -77 44 -12 66 -23 68 -34 5 -24 -70 -22 -127 4 -25 11 -47 16 -50 11
-15 -22 -62 -74 -65 -71 -1 2 -33 77 -71 167 l-68 163 -64 -3 -64 -3 -80 -188
c-43 -104 -79 -190 -79 -193 0 -2 29 -4 65 -4 60 0 66 2 77 25 10 23 16 25 84
25 68 0 72 -1 78 -25 6 -24 10 -25 76 -25 39 0 70 3 70 6 0 3 -5 14 -10 25
-13 23 -2 24 27 4 35 -25 142 -48 191 -41 94 13 142 56 142 128 0 62 -43 98
-142 119 -57 12 -81 26 -72 40 8 14 60 10 104 -7 23 -9 42 -15 44 -13 35 46
56 77 56 83 0 4 -20 16 -44 27 -60 26 -151 33 -199 15z m-320 -244 c-16 -2
-31 -2 -33 1 -2 2 4 23 13 46 l17 42 16 -43 16 -43 -29 -3z"/>
<path d="M13350 4015 l0 -195 65 0 65 0 0 97 0 98 46 -69 46 -68 40 61 c22 33
45 61 49 61 5 0 9 -40 9 -90 l0 -90 60 0 60 0 0 195 0 195 -65 0 -65 0 -41
-65 c-22 -36 -44 -65 -48 -65 -4 0 -24 29 -45 65 l-38 65 -69 0 -69 0 0 -195z"/>
<path d="M14640 4155 l0 -55 55 0 55 0 0 -140 0 -140 65 0 65 0 0 140 0 140
60 0 60 0 0 55 0 55 -180 0 -180 0 0 -55z"/>
<path d="M15020 4015 l0 -195 170 0 170 0 0 55 0 55 -105 0 c-98 0 -105 1
-105 20 0 19 7 20 95 20 l95 0 0 45 0 45 -95 0 c-88 0 -95 1 -95 20 0 19 7 20
100 20 l100 0 0 55 0 55 -165 0 -165 0 0 -195z"/>
<path d="M15390 4015 l0 -195 65 0 65 0 0 55 c0 74 23 74 70 0 l35 -55 73 0
c56 0 71 3 65 13 -4 6 -24 37 -45 67 l-39 54 24 13 c61 31 73 140 22 193 -36
38 -92 50 -224 50 l-111 0 0 -195z m224 72 c13 -10 16 -20 12 -35 -6 -18 -15
-22 -52 -22 -44 0 -44 0 -44 35 0 33 2 35 33 35 18 0 41 -6 51 -13z"/>
<path d="M16775 4130 c-226 -30 -429 -141 -533 -292 -86 -125 -98 -292 -42
-563 19 -93 167 -644 246 -915 25 -85 57 -176 71 -203 103 -188 374 -263 588
-162 113 54 182 139 235 290 60 171 230 779 311 1115 16 67 23 126 23 200 1
94 -2 111 -26 162 -41 88 -83 143 -146 191 -129 99 -282 150 -534 177 -106 11
-106 11 -193 0z m265 -110 c109 -17 110 -17 110 -48 0 -46 -24 -69 -88 -82
-69 -15 -132 -39 -132 -51 0 -13 28 -11 80 5 25 7 57 16 73 20 l27 6 -54 -107
c-30 -60 -94 -196 -141 -303 -48 -107 -91 -199 -97 -205 -11 -11 -3 111 14
185 11 54 38 210 38 228 0 6 -6 12 -14 12 -10 0 -17 -16 -21 -47 -4 -27 -15
-91 -25 -143 -10 -52 -22 -133 -26 -179 -7 -84 -7 -84 -25 -60 -35 46 -128
234 -154 313 -42 124 -36 258 14 325 l18 23 82 -41 c73 -37 101 -44 101 -23 0
4 -36 25 -80 46 -90 45 -90 45 -5 102 48 33 53 34 145 34 52 0 124 -5 160 -10z
m-415 -63 c-65 -67 -85 -122 -85 -235 0 -67 6 -102 30 -173 57 -172 182 -389
224 -389 28 0 32 7 169 310 63 140 140 303 171 362 31 60 56 120 56 134 0 23
3 25 25 20 107 -27 233 -100 285 -165 85 -108 98 -200 56 -394 -81 -373 -279
-1063 -344 -1195 -56 -115 -151 -174 -289 -180 -199 -9 -304 74 -373 298 -38
125 -204 733 -240 883 -90 366 -53 547 137 673 47 32 202 103 224 104 3 0 -18
-24 -46 -53z"/>
<path d="M14860 3727 c-56 -16 -105 -45 -147 -89 -107 -111 -104 -316 8 -427
88 -88 247 -114 361 -58 54 27 128 97 128 122 0 6 -33 30 -74 53 l-74 42 -35
-35 c-30 -30 -42 -35 -80 -35 -35 0 -51 6 -75 28 -55 51 -55 148 -1 202 25 25
39 30 76 30 39 0 50 -5 77 -34 l32 -33 77 44 c42 25 77 48 77 52 0 23 -85 101
-130 120 -63 27 -160 35 -220 18z"/>
<path d="M13360 3431 l0 -301 95 0 95 0 0 85 c0 83 1 85 23 85 19 0 36 -18 81
-85 l56 -85 210 0 210 0 16 40 16 40 107 0 108 0 13 -40 13 -40 107 0 108 0
-126 300 -125 300 -97 0 -97 0 -123 -295 -123 -295 -24 33 c-13 17 -42 60 -65
95 l-41 63 43 36 c50 43 70 85 70 145 0 65 -16 111 -52 145 -61 59 -93 66
-305 71 l-193 4 0 -301z m328 123 c24 -17 30 -62 10 -82 -7 -7 -40 -12 -80
-12 l-68 0 0 55 0 55 58 0 c36 0 66 -6 80 -16z m605 -127 c8 -23 18 -50 22
-59 6 -16 1 -18 -44 -18 -28 0 -51 3 -51 6 0 20 44 123 50 119 5 -3 15 -24 23
-48z"/>
<path d="M15260 3430 l0 -300 250 0 250 0 0 80 0 80 -155 0 -155 0 0 35 0 35
145 0 145 0 0 70 0 70 -145 0 -145 0 0 35 0 35 155 0 155 0 0 80 0 80 -250 0
-250 0 0 -300z"/>
<path d="M15772 2824 c-83 -41 -132 -121 -132 -214 0 -135 105 -240 240 -240
216 1 317 276 153 420 -76 67 -171 79 -261 34z m168 -89 c68 -35 97 -137 56
-199 -76 -117 -256 -66 -256 73 0 105 108 173 200 126z"/>
<path d="M18050 2808 c-100 -29 -169 -123 -170 -231 0 -137 101 -241 235 -240
140 1 235 98 235 239 0 112 -63 199 -168 230 -52 16 -82 16 -132 2z m107 -99
c66 -24 111 -99 98 -160 -4 -17 -20 -46 -37 -64 -55 -64 -145 -66 -203 -5 -23
24 -30 41 -33 88 -4 55 -2 61 28 95 43 49 96 66 147 46z"/>
<path d="M11608 2388 c-145 -91 -131 -307 24 -373 136 -56 288 49 288 200 0
47 -44 129 -86 161 -32 25 -48 29 -113 32 -65 3 -81 0 -113 -20z m154 -18 c46
-13 105 -77 114 -124 27 -146 -120 -255 -248 -184 -119 67 -110 242 16 299 47
21 67 23 118 9z"/>
<path d="M11650 2225 c-18 -22 -8 -50 19 -50 32 0 49 28 32 49 -17 20 -35 20
-51 1z"/>
<path d="M11805 2186 c-25 -18 -15 -50 16 -54 28 -3 43 16 33 42 -8 21 -30 26
-49 12z"/>
<path d="M11495 1977 c-26 -14 -48 -37 -62 -67 -21 -40 -23 -58 -23 -207 0
-90 -2 -163 -4 -163 -1 0 -17 5 -34 11 -24 8 -37 7 -61 -5 -38 -20 -51 -44
-51 -94 0 -76 77 -113 142 -68 36 24 38 24 48 7 13 -25 89 -61 128 -61 49 0
96 24 128 63 l28 36 29 -25 c41 -34 90 -32 128 5 33 33 37 67 14 111 -26 50
-87 66 -132 35 l-21 -15 -4 173 c-3 166 -4 175 -28 210 -52 75 -147 98 -225
54z m166 -43 c43 -38 49 -72 49 -269 0 -209 -7 -241 -62 -275 -64 -39 -149
-15 -183 50 -14 26 -16 64 -13 241 l3 211 39 35 c36 33 42 35 92 31 34 -3 62
-12 75 -24z m201 -421 c36 -33 13 -93 -37 -93 -30 0 -55 25 -55 55 0 49 55 72
92 38z m-477 -18 c31 -30 31 -37 2 -71 -19 -21 -29 -26 -50 -20 -51 12 -61 87
-14 106 33 13 36 12 62 -15z"/>
<path d="M11610 1846 c0 -9 5 -16 10 -16 6 0 10 4 10 9 0 6 -4 13 -10 16 -5 3
-10 -1 -10 -9z"/>
<path d="M11495 1561 c-8 -27 -2 -36 13 -18 6 7 7 18 3 26 -7 10 -10 8 -16 -8z"/>
<path d="M11582 1571 c-10 -6 -10 -10 2 -20 16 -13 29 -2 18 16 -4 7 -13 8
-20 4z"/>
<path d="M16541 1902 c-71 -36 -74 -48 -75 -271 -1 -178 -3 -202 -19 -218 -10
-10 -70 -54 -134 -98 -164 -112 -215 -187 -182 -266 20 -49 59 -60 263 -70
100 -5 231 -13 291 -19 61 -6 209 -10 330 -8 194 3 224 5 251 22 56 34 55 26
54 449 -1 435 1 425 -68 454 -28 12 -71 14 -192 12 -127 -2 -162 1 -192 14
-55 25 -279 24 -327 -1z m290 -297 c-2 -118 -8 -215 -13 -222 -6 -7 -60 -50
-122 -97 -121 -90 -172 -142 -182 -182 l-7 -26 -137 4 c-76 1 -142 6 -146 11
-4 4 1 20 13 35 20 28 32 37 193 150 130 92 130 91 130 324 0 102 3 194 6 202
6 14 25 16 138 14 l131 -3 -4 -210z m397 -179 c2 -281 -1 -361 -10 -368 -15
-9 -495 -11 -562 -2 -36 5 -46 11 -44 23 3 16 95 93 223 186 112 81 109 74
113 303 2 108 5 203 7 210 4 10 36 12 137 10 l133 -3 3 -359z"/>
<path d="M11852 1689 c6 -18 602 -328 612 -318 5 5 8 11 5 13 -5 5 -212 115
-445 237 -148 77 -179 90 -172 68z"/>
<path d="M12400 1325 c0 -8 -6 -12 -13 -9 -19 7 -39 -20 -35 -48 2 -19 10 -24
41 -26 l37 -3 0 50 c0 39 -4 51 -15 51 -8 0 -15 -7 -15 -15z m0 -50 c0 -26
-14 -33 -25 -15 -9 14 1 40 15 40 5 0 10 -11 10 -25z"/>
<path d="M12547 1326 c-3 -8 -16 -12 -31 -11 -24 3 -26 0 -26 -36 0 -21 5 -39
10 -39 6 0 10 14 10 30 0 24 4 30 21 30 11 0 17 -5 14 -10 -9 -15 4 -50 19
-50 8 0 11 10 8 29 -6 45 14 45 27 -1 10 -33 10 -42 0 -49 -17 -10 -6 -21 13
-14 8 3 21 24 27 47 7 22 15 46 18 54 3 8 0 14 -6 14 -6 0 -14 -15 -19 -32
l-8 -33 -12 33 c-6 17 -18 32 -26 32 -9 0 -16 5 -16 10 0 15 -17 12 -23 -4z"/>
<path d="M13147 1333 c-4 -3 -7 -26 -7 -50 0 -32 4 -43 15 -43 11 0 15 12 15
50 0 46 -7 60 -23 43z"/>
<path d="M11515 1313 c-38 -2 -75 -9 -82 -15 -10 -8 -13 -50 -13 -159 0 -147
0 -149 25 -165 25 -17 70 -16 327 2 121 9 128 45 24 124 l-56 42 0 77 c0 47
-5 82 -12 89 -12 12 -54 13 -213 5z m185 -87 c0 -87 10 -108 75 -156 30 -22
53 -45 50 -51 -4 -5 -28 -9 -56 -9 -36 0 -49 4 -49 15 0 8 -24 33 -54 55 l-54
41 -7 74 c-4 40 -4 78 -1 84 4 6 27 11 52 11 l44 0 0 -64z m-142 -16 c3 -96 6
-102 71 -150 33 -23 58 -47 55 -51 -3 -5 -54 -9 -115 -9 l-109 0 0 141 0 140
48 -3 47 -3 3 -65z"/>
<path d="M12450 1280 c0 -22 5 -40 10 -40 6 0 10 18 10 40 0 22 -4 40 -10 40
-5 0 -10 -18 -10 -40z"/>
<path d="M12726 1307 c-11 -8 -17 -23 -14 -38 2 -19 10 -25 36 -27 18 -2 32 1
32 7 0 6 -10 10 -22 8 -17 -1 -23 3 -23 18 0 15 6 19 23 18 25 -3 30 12 6 21
-20 8 -17 8 -38 -7z"/>
<path d="M12806 1307 c-29 -21 -17 -61 18 -65 43 -5 61 32 30 62 -19 19 -25
20 -48 3z m41 -23 c8 -21 -13 -42 -28 -27 -13 13 -5 43 11 43 6 0 13 -7 17
-16z"/>
<path d="M12890 1278 c0 -21 5 -38 10 -38 6 0 10 14 10 30 0 17 5 30 10 30 6
0 10 -13 10 -30 0 -20 5 -30 15 -30 10 0 15 10 15 29 0 33 -13 46 -47 46 -20
1 -23 -4 -23 -37z"/>
<path d="M12983 1313 c-22 -8 -14 -33 12 -43 14 -5 25 -12 25 -16 0 -3 -11 -3
-25 0 -15 4 -25 2 -25 -4 0 -15 62 -8 67 7 2 6 -8 19 -24 28 -24 14 -25 16 -5
11 15 -3 22 0 19 7 -4 13 -26 18 -44 10z"/>
<path d="M13066 1304 c-31 -30 -8 -69 36 -62 30 4 38 46 12 65 -23 17 -29 16
-48 -3z m39 -29 c0 -10 -5 -20 -11 -22 -13 -4 -27 24 -18 38 9 15 29 4 29 -16z"/>
<path d="M13190 1306 c-20 -26 -8 -61 23 -64 15 -2 27 1 27 7 0 6 -6 8 -14 5
-8 -3 -17 -1 -21 5 -4 7 4 11 19 11 28 0 34 18 14 38 -16 16 -33 15 -48 -2z
m35 -16 c-3 -5 -10 -10 -16 -10 -5 0 -9 5 -9 10 0 6 7 10 16 10 8 0 12 -4 9
-10z"/>
<path d="M13042 1147 c-5 -7 -7 -29 -5 -49 4 -31 9 -38 27 -37 11 0 15 3 9 6
-15 5 -17 45 -4 59 6 5 4 14 -4 21 -10 10 -15 10 -23 0z"/>
<path d="M12530 1085 c0 -42 3 -55 15 -55 8 0 15 7 15 15 0 8 9 15 20 15 24 0
38 44 20 65 -7 8 -25 15 -41 15 -28 0 -29 -1 -29 -55z m58 13 c-5 -32 -28 -35
-28 -4 0 17 5 26 16 26 10 0 14 -7 12 -22z"/>
<path d="M12630 1126 c-20 -26 -8 -61 23 -64 16 -2 27 2 27 8 0 7 -7 10 -15 7
-8 -4 -17 -2 -20 3 -4 6 5 10 19 10 28 0 34 18 14 38 -16 16 -33 15 -48 -2z
m37 -12 c-3 -3 -12 -4 -19 -1 -8 3 -5 6 6 6 11 1 17 -2 13 -5z"/>
<path d="M12715 1131 c-4 -7 3 -11 17 -11 l23 0 -25 -13 c-36 -18 -32 -41 8
-45 33 -3 33 -3 30 35 -2 30 -7 39 -25 41 -11 2 -24 -2 -28 -7z m35 -45 c0
-11 -19 -15 -25 -6 -3 5 1 10 9 10 9 0 16 -2 16 -4z"/>
<path d="M12793 1133 c-22 -8 -14 -33 12 -43 34 -13 32 -24 -2 -15 -21 5 -25
4 -17 -5 16 -16 58 -8 62 11 2 11 -7 21 -25 27 -26 10 -26 10 -5 11 13 1 20 5
17 11 -7 11 -22 12 -42 3z"/>
<path d="M12875 1131 c-4 -7 3 -11 17 -11 l23 0 -25 -13 c-36 -18 -32 -41 8
-45 33 -3 33 -3 30 35 -2 30 -7 39 -25 41 -11 2 -24 -2 -28 -7z m35 -45 c0 -3
-4 -8 -10 -11 -5 -3 -10 -1 -10 4 0 6 5 11 10 11 6 0 10 -2 10 -4z"/>
<path d="M12950 1099 c0 -44 17 -54 22 -12 4 39 28 42 28 4 0 -17 5 -31 11
-31 6 0 9 16 7 38 -3 34 -6 37 -35 39 -32 1 -33 0 -33 -38z"/>
</g>
</svg>
