<?xml version="1.0" standalone="no"?>
<!DOCTYPE svg PUBLIC "-//W3C//DTD SVG 20010904//EN"
 "http://www.w3.org/TR/2001/REC-SVG-20010904/DTD/svg10.dtd">
<svg version="1.0" xmlns="http://www.w3.org/2000/svg"
 width="1280.000000pt" height="720.000000pt" viewBox="0 0 1280.000000 720.000000"
 preserveAspectRatio="xMidYMid meet">

<g transform="translate(0.000000,720.000000) scale(0.100000,-0.100000)"
fill="#000000" stroke="none">
<path d="M6000 6910 c-47 -10 -104 -26 -128 -34 -46 -17 -332 -230 -432 -323
-114 -105 -116 -147 -16 -278 6 -8 -4 -24 -31 -49 -45 -40 -55 -71 -41 -124
22 -79 92 -150 155 -156 l27 -3 2 -104 c5 -342 233 -635 564 -726 89 -24 289
-24 380 1 92 24 214 87 289 149 56 45 140 142 169 193 8 15 11 15 41 -1 18 -9
74 -25 124 -36 51 -11 124 -34 162 -52 70 -32 70 -32 225 -31 173 2 331 18
393 40 23 8 58 30 77 48 35 34 120 72 240 108 47 15 106 22 218 25 l152 5 25
30 c40 48 33 72 -42 147 -119 117 -309 224 -509 287 -235 73 -359 151 -740
470 -224 187 -287 232 -399 286 -114 55 -168 59 -325 25 l-115 -25 -47 44
c-26 24 -68 57 -94 74 -45 28 -54 30 -143 29 -53 0 -134 -9 -181 -19z m254
-74 c18 -8 63 -41 100 -74 37 -34 75 -64 85 -67 11 -3 63 4 118 16 195 42 238
38 368 -39 81 -48 147 -99 374 -287 326 -271 510 -387 701 -440 157 -44 378
-160 473 -248 26 -25 35 -47 19 -47 -38 0 -282 -34 -337 -46 -51 -12 -117 -16
-245 -16 -178 0 -210 -3 -210 -18 0 -12 96 -47 153 -55 26 -4 47 -11 47 -15 0
-42 -147 -70 -390 -73 -163 -2 -165 -2 -218 26 -30 16 -97 37 -150 49 -108 22
-146 39 -165 69 -18 30 -75 56 -151 70 -91 15 -101 31 -93 147 4 48 16 121 27
162 28 108 26 142 -11 184 -41 47 -129 87 -204 94 -49 3 -79 -1 -156 -26 -212
-68 -276 -51 -347 89 -24 49 -30 54 -63 57 -27 2 -51 -6 -90 -29 -66 -38 -190
-135 -282 -218 -79 -72 -104 -77 -140 -28 -42 57 -41 64 13 114 67 62 68 92 5
163 -48 54 -51 61 -35 89 11 21 159 143 321 264 103 78 125 89 195 107 151 38
240 46 288 26z m-275 -624 c28 -55 101 -119 153 -133 50 -13 150 -7 223 15
178 53 169 52 229 33 31 -10 68 -28 83 -41 l26 -23 -23 -89 c-13 -51 -25 -133
-28 -191 -4 -89 -2 -107 16 -145 25 -50 49 -68 115 -83 l48 -11 -31 -46 c-73
-110 -221 -212 -351 -243 -35 -8 -102 -15 -149 -15 -174 0 -306 55 -431 180
-58 57 -85 94 -113 152 -68 143 -82 298 -41 447 18 61 22 66 99 128 64 51 136
99 153 103 2 0 11 -17 22 -38z"/>
<path d="M5745 5967 c-54 -48 -37 -147 34 -194 82 -55 200 3 205 99 1 31 -3
35 -64 65 -36 17 -85 36 -108 41 -38 9 -46 7 -67 -11z"/>
<path d="M6300 5828 c-25 -42 -25 -71 0 -123 24 -50 65 -75 122 -75 54 0 100
27 121 73 35 73 20 92 -98 131 -105 34 -121 34 -145 -6z"/>
<path d="M5895 5004 c-265 -40 -506 -156 -663 -317 -87 -91 -126 -151 -159
-252 -25 -74 -27 -92 -27 -250 0 -250 9 -291 228 -1085 236 -857 244 -879 360
-995 113 -112 242 -170 406 -182 255 -18 491 100 612 306 57 99 152 399 356
1126 71 253 168 644 188 756 80 458 -228 778 -841 874 -98 16 -401 28 -460 19z
m345 -154 c58 -6 129 -15 158 -21 49 -10 52 -12 52 -40 0 -51 -25 -95 -60
-108 -18 -6 -42 -11 -54 -11 -12 -1 -59 -13 -106 -28 -68 -22 -85 -32 -85 -47
0 -26 14 -24 138 10 55 14 101 24 104 22 2 -3 -8 -25 -23 -49 -43 -67 -112
-209 -249 -513 -70 -154 -131 -284 -137 -290 -15 -15 0 152 27 285 37 187 50
289 37 302 -18 18 -42 1 -42 -29 0 -15 -14 -102 -31 -193 -38 -203 -48 -278
-49 -355 l0 -60 -20 25 c-35 45 -166 293 -198 375 -57 145 -67 192 -67 310 1
99 3 116 29 172 16 35 35 68 42 74 11 9 39 -1 128 -46 68 -35 120 -56 130 -52
22 9 20 38 -3 44 -11 3 -44 18 -73 34 -29 17 -73 39 -97 51 l-44 20 24 20 c13
11 54 39 90 63 85 57 123 60 379 35z m-535 -83 c-72 -72 -99 -120 -121 -214
-20 -84 -14 -207 16 -311 47 -167 199 -468 288 -573 44 -51 71 -51 105 0 14
21 69 135 122 252 173 385 227 498 292 615 63 115 103 214 103 254 0 24 16 22
118 -16 190 -71 331 -187 398 -328 68 -143 61 -223 -62 -719 -130 -523 -339
-1220 -419 -1394 -95 -207 -323 -310 -570 -258 -80 17 -154 51 -207 95 -47 39
-111 134 -138 208 -40 104 -336 1168 -394 1413 -29 123 -56 314 -56 399 0 291
155 481 503 615 34 13 67 24 74 25 6 0 -17 -28 -52 -63z"/>
<path d="M4535 3187 c-95 -32 -160 -85 -206 -169 -32 -60 -34 -68 -34 -163 0
-89 3 -105 27 -151 75 -142 238 -218 386 -180 76 19 126 50 180 111 61 70 85
141 80 240 -7 132 -74 232 -195 291 -65 32 -175 42 -238 21z m185 -157 c71
-36 118 -125 105 -199 -10 -61 -56 -125 -107 -150 -84 -40 -189 -18 -241 51
-78 102 -46 243 68 302 43 22 127 20 175 -4z"/>
<path d="M7706 3126 c-74 -31 -157 -110 -188 -180 -18 -41 -23 -69 -23 -141 0
-79 4 -96 29 -145 87 -169 284 -240 448 -163 264 125 271 487 12 618 -82 42
-195 46 -278 11z m230 -152 c85 -55 117 -161 74 -249 -58 -120 -207 -150 -307
-62 -45 39 -63 82 -63 147 0 115 77 190 195 190 49 0 69 -5 101 -26z"/>
<path d="M5585 1865 c-49 -18 -90 -62 -104 -112 -6 -22 -11 -145 -11 -294 0
-242 -1 -258 -20 -282 -24 -30 -121 -102 -234 -172 -194 -122 -270 -245 -222
-360 29 -68 85 -81 386 -90 123 -3 219 -10 240 -18 26 -9 156 -12 500 -12
l465 0 39 24 c80 50 76 19 76 624 0 603 2 586 -71 634 l-42 28 -205 3 c-123 2
-216 -1 -234 -7 -25 -9 -35 -7 -70 17 -41 27 -42 27 -247 29 -159 2 -215 -1
-246 -12z m414 -134 c11 -7 13 -32 8 -127 -4 -66 -9 -191 -13 -279 -3 -88 -7
-170 -9 -181 -3 -14 -69 -70 -180 -153 -180 -136 -248 -201 -260 -249 -13 -52
-15 -53 -184 -47 -195 7 -241 13 -241 29 0 30 81 102 215 190 188 125 254 186
265 246 5 25 9 158 10 297 0 215 2 254 16 267 13 13 44 16 187 16 95 0 178 -4
186 -9z m545 -37 c14 -5 16 -60 16 -514 l0 -509 -22 -8 c-25 -8 -785 -6 -830
3 -19 4 -28 12 -28 25 0 23 105 111 250 211 58 40 130 98 161 128 69 68 69 69
69 392 0 146 4 247 10 259 10 18 23 19 185 19 95 0 180 -3 189 -6z"/>
</g>
</svg>
